<?xml version="1.0" standalone="no"?><!DOCTYPE svg PUBLIC "-//W3C//DTD SVG 1.1//EN" "http://www.w3.org/Graphics/SVG/1.1/DTD/svg11.dtd"><svg t="1721702259447" class="icon" viewBox="0 0 1024 1024" version="1.1" xmlns="http://www.w3.org/2000/svg" p-id="8602" xmlns:xlink="http://www.w3.org/1999/xlink" width="200" height="200"><path d="M825.738659 42.367311h-597.377491c-86.3073 0-156.456914 70.205602-156.456914 156.456915v597.37749c0 86.3073 70.149614 156.456914 156.456914 156.456915h597.377491c86.3073 0 156.456914-70.149614 156.456914-156.456915v-597.37749c0-86.251312-70.150614-156.456914-156.456914-156.456915z m-597.377491 85.340499h597.377491a71.216395 71.216395 0 0 1 71.117415 71.116416v42.670249H157.241753v-42.670249a71.216395 71.216395 0 0 1 71.115416-71.116416z m-71.119415 668.497906V326.833974H356.367917v540.489157H228.357169a71.178403 71.178403 0 0 1-71.115416-71.117415z m668.496906 71.116415H441.708415v-540.489157h455.147659v469.372742a71.179403 71.179403 0 0 1-71.117415 71.116415z" p-id="8603"></path></svg>