<?xml version="1.0" standalone="no"?><!DOCTYPE svg PUBLIC "-//W3C//DTD SVG 1.1//EN" "http://www.w3.org/Graphics/SVG/1.1/DTD/svg11.dtd"><svg t="1721702111961" class="icon" viewBox="0 0 1024 1024" version="1.1" xmlns="http://www.w3.org/2000/svg" p-id="3364" xmlns:xlink="http://www.w3.org/1999/xlink" width="200" height="200"><path d="M342.747429 304.420571a36.571429 36.571429 0 0 1 51.785142 0L550.034286 460.068571a36.571429 36.571429 0 0 1 0 51.712L394.532571 667.428571a36.571429 36.571429 0 1 1-51.785142-51.785142l129.828571-129.755429L342.747429 356.205714a36.571429 36.571429 0 0 1 0-51.712zM531.090286 604.964571a36.571429 36.571429 0 0 0 0 73.142858h187.977143a36.571429 36.571429 0 0 0 0-73.142858h-187.977143z" p-id="3365"></path><path d="M353.133714 136.411429c0-70.875429 51.2-136.411429 123.611429-136.411429s123.538286 65.536 123.538286 136.411429v28.891428h176.566857c38.985143 0 70.582857 31.817143 70.582857 70.948572v251.318857h46.153143c69.851429 0 130.413714 53.833143 130.413714 125.001143 0 71.168-60.562286 125.001143-130.413714 125.001142h-46.08v215.478858c0 39.204571-31.670857 70.948571-70.656 70.948571H529.554286v-107.081143c0-18.285714-5.632-46.372571-21.650286-68.900571-14.701714-20.699429-39.424-38.838857-84.260571-38.838857-44.836571 0-69.485714 18.139429-84.260572 38.765714a126.098286 126.098286 0 0 0-21.650286 68.973714V1024H70.582857A70.802286 70.802286 0 0 1 0 953.051429V717.531429h105.910857c17.846857 0 45.348571-5.705143 67.510857-21.942858 20.333714-14.774857 38.473143-39.936 38.473143-85.796571s-18.139429-71.094857-38.473143-85.942857a121.124571 121.124571 0 0 0-67.510857-21.869714H0V236.251429c0-39.131429 31.597714-70.948571 70.656-70.948572h282.477714v-28.891428z m70.582857 0V236.251429H70.656v194.852571h35.254857c29.257143 0 72.338286 8.557714 109.056 35.401143 38.546286 28.086857 67.510857 74.605714 67.510857 143.286857 0 68.681143-28.964571 115.126857-67.510857 143.213714a191.341714 191.341714 0 0 1-108.982857 35.474286H70.582857v164.571429h176.493714v-36.132572c0-29.476571 8.484571-72.996571 34.816-110.153143 27.721143-38.912 73.581714-68.534857 141.750858-68.534857 68.169143 0 114.102857 29.622857 141.750857 68.534857 26.331429 37.156571 34.816 80.676571 34.816 110.153143v36.132572h176.566857V666.624h116.736c35.108571 0 59.757714-26.331429 59.757714-54.125714 0-27.648-24.502857-53.979429-59.757714-53.979429h-116.736V236.251429H529.554286V136.411429c0-40.594286-27.794286-65.462857-52.955429-65.462858-25.088 0-52.955429 24.868571-52.955428 65.462858z" p-id="3366"></path></svg>