<svg xmlns="http://www.w3.org/2000/svg" viewBox="0 0 90 30">
  <path d="M26.1,6.5L26.1,6.5L15.6,0.4c-0.9-0.5-2-0.5-2.9,0L2.2,6.5C1.4,7,0.8,7.9,0.8,8.9v12.1c0,1,0.5,2,1.4,2.5l10.5,6.1c0.9,0.5,2,0.5,2.9,0l10.5-6.1c0.9-0.5,1.4-1.5,1.4-2.5V8.9C27.6,7.9,27,7,26.1,6.5z M10.1,14L10.1,14l0,7.3l-2-1.1c-0.9-0.5-1.4-1.5-1.4-2.5v-5.4c0-1,0.5-2,1.4-2.5l4.6-2.7c0.9-0.5,2-0.5,2.9,0l2,1.1L11.2,12C10.5,12.4,10.1,13.1,10.1,14z M21.7,17.7c0,1-0.5,2-1.4,2.5l-4.6,2.7c-0.9,0.5-2,0.5-2.9,0l-2-1.2l6.4-3.7c0.7-0.4,1.1-1.2,1.1-2V8.7l2,1.2c0.9,0.5,1.4,1.5,1.4,2.5L21.7,17.7z M44.8,13.5v3.7c0,2.1-1.7,3.7-3.7,3.7h-6.2v-9.2h3.1v7.8h2.9c0.5,0,0.9-0.4,0.9-0.9V12c0-0.5-0.4-0.9-0.9-0.9h-2.5h-3.5V9.8H41l0,0c0,0,0,0,0,0C43.1,9.8,44.8,11.5,44.8,13.5z M82.7,11.7h3.1v9.2h-3.1V11.7z M89.2,9.8v1.4h-10V9.8H89.2z M52,9.8L52,9.8h-2.5c-2.1,0-3.7,1.7-3.7,3.7v3.7c0,2.1,1.7,3.7,3.7,3.7c0,0,0,0,0,0H52c2.1,0,3.7-1.7,3.7-3.7c0,0,0,0,0,0v-3.7C55.8,11.5,54.1,9.8,52,9.8z M52.7,12v6.6c0,0.5-0.4,0.9-0.9,0.9h-2.1c-0.5,0-0.9-0.4-0.9-0.9V12c0-0.5,0.4-0.9,0.9-0.9h2.1C52.3,11.2,52.7,11.5,52.7,12C52.7,12,52.7,12,52.7,12z M74.7,9.8L74.7,9.8l-2.5,0c-2.1,0-3.7,1.7-3.7,3.7v3.7c0,2.1,1.7,3.7,3.7,3.7h2.5c2.1,0,3.7-1.7,3.7-3.7c0,0,0,0,0,0v-3.7C78.4,11.5,76.8,9.8,74.7,9.8z M75.3,18.7c0,0.5-0.4,0.9-0.9,0.9h-2.1c-0.5,0-0.9-0.4-0.9-0.9V12c0-0.5,0.4-0.9,0.9-0.9c0,0,0,0,0,0h2.1c0.5,0,0.9,0.4,0.9,0.9V18.7z M63.9,9.8C63.9,9.8,63.9,9.8,63.9,9.8L63.9,9.8l-6.8,0v1.4h4.2h1.8c0.5,0,0.9,0.4,0.9,0.9v1.8c0,0.5-0.4,0.9-0.9,0.9h-2.9v-3h-3.1v9.2h6.8c1.8,0,3.2-1.4,3.2-3.2c0,0,0,0,0,0v-0.1c0-0.9-0.4-1.7-1.1-2.2c0.7-0.5,1.1-1.3,1.1-2.2V13C67.1,11.2,65.6,9.8,63.9,9.8z M64,16.8l0,1.8c0,0.5-0.4,0.9-0.9,0.9h-2.9V16h2.9C63.6,16,64,16.4,64,16.8C64,16.8,64,16.8,64,16.8z" fill="#e3e3e3"></path>
</svg>