<?xml version="1.0" standalone="no"?><!DOCTYPE svg PUBLIC "-//W3C//DTD SVG 1.1//EN" "http://www.w3.org/Graphics/SVG/1.1/DTD/svg11.dtd"><svg t="1721702151754" class="icon" viewBox="0 0 1024 1024" version="1.1" xmlns="http://www.w3.org/2000/svg" p-id="5268" xmlns:xlink="http://www.w3.org/1999/xlink" width="200" height="200"><path d="M20.48 155.648v708.608c0 73.728 61.44 135.168 135.168 135.168h708.608c73.728 0 135.168-61.44 135.168-135.168V155.648C999.424 81.92 937.984 20.48 864.256 20.48H155.648C81.92 20.48 20.48 81.92 20.48 155.648z m901.12 196.608v512c0 28.672-24.576 53.248-53.248 53.248H155.648c-28.672 0-53.248-24.576-53.248-53.248V352.256c0-28.672 24.576-53.248 53.248-53.248h708.608c32.768 0 57.344 24.576 57.344 53.248zM479.232 126.976h356.352c20.48 0 40.96 20.48 40.96 40.96s-20.48 40.96-40.96 40.96h-356.352c-24.576 0-40.96-20.48-40.96-40.96s16.384-40.96 40.96-40.96z m-180.224 0c24.576 0 40.96 20.48 40.96 40.96s-16.384 40.96-40.96 40.96-40.96-20.48-40.96-40.96 16.384-40.96 40.96-40.96z m-73.728 40.96c0 20.48-16.384 40.96-40.96 40.96-20.48 0-40.96-20.48-40.96-40.96s20.48-40.96 40.96-40.96c24.576 0 40.96 20.48 40.96 40.96z" p-id="5269"></path><path d="M720.896 475.136c-16.384-16.384-40.96-16.384-57.344 0-16.384 16.384-16.384 40.96 0 57.344l61.44 61.44-61.44 61.44c-16.384 16.384-16.384 40.96 0 57.344 16.384 16.384 40.96 16.384 57.344 0l94.208-90.112c16.384-16.384 16.384-45.056 0-57.344l-94.208-90.112zM360.448 479.232c-16.384-16.384-40.96-16.384-57.344 0l-94.208 90.112c-16.384 16.384-16.384 45.056 0 57.344l94.208 90.112c16.384 16.384 40.96 16.384 57.344 0 16.384-16.384 16.384-40.96 0-57.344l-61.44-61.44 61.44-61.44c16.384-16.384 16.384-40.96 0-57.344zM581.632 368.64c-20.48-4.096-45.056 8.192-49.152 28.672l-102.4 368.64c-4.096 20.48 8.192 45.056 28.672 49.152 20.48 4.096 45.056-8.192 49.152-28.672l102.4-368.64c4.096-20.48-8.192-40.96-28.672-49.152z" p-id="5270"></path></svg>